<svg width="35" height="35" viewBox="0 0 35 35" fill="none" xmlns="http://www.w3.org/2000/svg">
<path d="M3.62513 24.7863C2.78353 25.2432 1.72203 24.934 1.35138 24.051C0.41454 21.8191 -0.0471613 19.4095 0.00380366 16.9767C0.0669092 13.9643 0.913846 11.0204 2.46115 8.43509C4.00845 5.84975 6.2027 3.7122 8.82767 2.23312C11.4526 0.754034 14.4177 -0.0155412 17.4306 0.000237782C20.4436 0.0160167 23.4004 0.816605 26.0098 2.3231C28.6191 3.8296 30.7908 5.99001 32.311 8.59141C33.8311 11.1928 34.6472 14.1454 34.6787 17.1583C34.7042 19.5915 34.2173 21.9961 33.2571 24.2181C32.8772 25.0972 31.8126 25.3952 30.9758 24.9295V24.9295C30.139 24.4638 29.8495 23.4107 30.2072 22.5224C30.8869 20.835 31.2301 19.0249 31.2109 17.1946C31.1857 14.7843 30.5329 12.4222 29.3167 10.3411C28.1006 8.25997 26.3632 6.53165 24.2758 5.32645C22.1883 4.12125 19.8228 3.48078 17.4125 3.46816C15.0021 3.45553 12.6301 4.07119 10.5301 5.25446C8.43013 6.43773 6.67472 8.14777 5.43688 10.216C4.19904 12.2843 3.52149 14.6394 3.47101 17.0493C3.43267 18.8793 3.75694 20.6929 4.41886 22.3873C4.76731 23.2793 4.46673 24.3293 3.62513 24.7863V24.7863Z" fill="#E4E4E4"/>
<path d="M3.62513 24.7863C2.78353 25.2432 1.722 24.934 1.35133 24.051C-0.190317 20.3785 -0.427141 16.2677 0.71407 12.415C2.02021 8.00559 5.0245 4.29563 9.06601 2.10127C13.1075 -0.0930805 17.8552 -0.592072 22.2646 0.714069C26.1173 1.85528 29.4359 4.29285 31.6763 7.58595C32.2149 8.37775 31.8961 9.43644 31.0545 9.89339V9.89339C30.2129 10.3503 29.1686 10.0305 28.6103 9.25245C26.8233 6.76199 24.2499 4.91904 21.2797 4.03922C17.7521 2.99431 13.954 3.3935 10.7208 5.14899C7.48756 6.90447 5.08414 9.87244 4.03922 13.4C3.15941 16.3702 3.30341 19.5322 4.4188 22.3873C4.76728 23.2793 4.46673 24.3293 3.62513 24.7863V24.7863Z" fill="url(#paint0_linear_143_196)"/>
<path d="M23.4326 13.3538C23.7491 13.3538 24.0535 13.589 24.0459 13.9446H24.0469V16.7014C24.0468 16.9789 23.8582 17.171 23.6553 17.2473C23.4782 17.3138 23.2571 17.3068 23.0742 17.1848L22.998 17.1252L22.1729 16.3694L18.4453 19.7786L18.4463 19.7795C18.0935 20.1028 17.5444 20.1228 17.167 19.8401L17.0938 19.7795L14.9746 17.8372L11.457 21.0676C11.0806 21.4125 10.4809 21.4125 10.1045 21.0676C9.71473 20.7103 9.71478 20.1223 10.1045 19.7649L14.3018 15.9124V15.9114L14.375 15.8508C14.7523 15.568 15.3014 15.5884 15.6543 15.9114L17.7725 17.8528L20.7852 15.092L19.9971 14.3694C19.7963 14.1854 19.7637 13.9208 19.8594 13.7102C19.9542 13.502 20.1682 13.3538 20.4316 13.3538H23.4326Z" fill="url(#paint1_linear_143_196)" stroke="url(#paint2_linear_143_196)" stroke-width="0.54187"/>
<defs>
<linearGradient id="paint0_linear_143_196" x1="37.2806" y1="28.2969" x2="-3.46796" y2="28.2969" gradientUnits="userSpaceOnUse">
<stop stop-color="#6BD5BF"/>
<stop offset="0.159669" stop-color="#32D172"/>
<stop offset="0.268196" stop-color="#8ACD41"/>
<stop offset="0.658066" stop-color="#F3AF3D"/>
<stop offset="0.804268" stop-color="#FF7A00"/>
<stop offset="1" stop-color="#FF2E00"/>
</linearGradient>
<linearGradient id="paint1_linear_143_196" x1="21.6535" y1="17.6496" x2="12.0685" y2="17.6496" gradientUnits="userSpaceOnUse">
<stop stop-color="#52D060"/>
<stop offset="0.395833" stop-color="#EDB13E"/>
<stop offset="1" stop-color="#FF7501"/>
</linearGradient>
<linearGradient id="paint2_linear_143_196" x1="21.6535" y1="17.6496" x2="12.0685" y2="17.6496" gradientUnits="userSpaceOnUse">
<stop stop-color="#52D060"/>
<stop offset="0.395833" stop-color="#EDB13E"/>
<stop offset="1" stop-color="#FF7501"/>
</linearGradient>
</defs>
</svg>
