<svg width="20" height="20" viewBox="0 0 20 20" fill="none" xmlns="http://www.w3.org/2000/svg">
<g clip-path="url(#clip0_1_2502)">
<path d="M5.36607 17.3405H2.4761C2.02196 17.3405 1.65039 16.9689 1.65039 16.5148V8.25773C1.65039 7.80359 2.02196 7.43202 2.4761 7.43202H5.36607C5.82021 7.43202 6.19178 7.80359 6.19178 8.25773V16.5148C6.19178 16.9689 5.82021 17.3405 5.36607 17.3405ZM11.3524 2.47778H8.46247C8.00833 2.47778 7.63676 2.84935 7.63676 3.30349V16.5148C7.63676 16.9689 8.00833 17.3405 8.46247 17.3405H11.3524C11.8066 17.3405 12.1781 16.9689 12.1781 16.5148V3.30349C12.1781 2.84935 11.8066 2.47778 11.3524 2.47778ZM17.3388 9.08343H14.4488C13.9947 9.08343 13.6231 9.455 13.6231 9.90914V16.5148C13.6231 16.9689 13.9947 17.3405 14.4488 17.3405H17.3388C17.7929 17.3405 18.1645 16.9689 18.1645 16.5148V9.90914C18.1645 9.455 17.7929 9.08343 17.3388 9.08343Z" fill="url(#paint0_linear_1_2502)"/>
</g>
<defs>
<linearGradient id="paint0_linear_1_2502" x1="9.90745" y1="2.47778" x2="9.90745" y2="17.3405" gradientUnits="userSpaceOnUse">
<stop stop-color="#967CFD"/>
<stop offset="1" stop-color="#3177FF"/>
</linearGradient>
<clipPath id="clip0_1_2502">
<rect width="19.817" height="19.817" fill="white"/>
</clipPath>
</defs>
</svg>
