<svg width="25" height="31" viewBox="0 0 25 31" fill="none" xmlns="http://www.w3.org/2000/svg">
<path d="M24.1663 0.916748H0.833008V3.83342L9.30593 10.1917C6.7345 11.0397 4.60496 12.8739 3.38533 15.2913C2.1657 17.7086 1.9558 20.5113 2.80176 23.0834C3.22029 24.3576 3.88591 25.5367 4.76056 26.5533C5.63521 27.57 6.70172 28.4042 7.89908 29.0083C9.09644 29.6124 10.4012 29.9745 11.7386 30.0739C13.076 30.1733 14.4199 30.0081 15.6934 29.5876C17.7358 28.9163 19.5141 27.6173 20.7748 25.8759C22.0355 24.1345 22.7142 22.0395 22.7142 19.8897C22.7142 17.7398 22.0355 15.6448 20.7748 13.9034C19.5141 12.162 17.7358 10.863 15.6934 10.1917L24.1663 3.83342V0.916748ZM16.7872 26.4376L12.4997 23.9293L8.21218 26.4376L9.34968 21.5813L5.57259 18.3147L10.5455 17.8918L12.4997 13.3126L14.4538 17.8918L19.4268 18.3147L15.6497 21.5813L16.7872 26.4376Z" fill="#FFCD29"/>
</svg>
